<?xml version="1.0" encoding="UTF-8"?>
<!DOCTYPE svg PUBLIC "-//W3C//DTD SVG 1.1//EN" "http://www.w3.org/Graphics/SVG/1.1/DTD/svg11.dtd">
<svg xmlns="http://www.w3.org/2000/svg" version="1.1" width="512px" height="512px" style="shape-rendering:geometricPrecision; text-rendering:geometricPrecision; image-rendering:optimizeQuality; fill-rule:evenodd; clip-rule:evenodd" xmlns:xlink="http://www.w3.org/1999/xlink">
<g><path style="opacity:0.991" fill="#fefffe" d="M 511.5,60.5 C 511.5,157.167 511.5,253.833 511.5,350.5C 506.014,371.485 492.681,384.652 471.5,390C 417.834,390.5 364.168,390.667 310.5,390.5C 310.5,402.167 310.5,413.833 310.5,425.5C 335.243,421.344 354.743,429.344 369,449.5C 375.668,461.664 377.168,474.33 373.5,487.5C 372.5,488.333 371.5,489.167 370.5,490C 293.833,490.667 217.167,490.667 140.5,490C 135.998,486.336 134.332,481.502 135.5,475.5C 136.46,449.037 149.793,432.537 175.5,426C 183.827,425.5 192.16,425.334 200.5,425.5C 200.5,413.833 200.5,402.167 200.5,390.5C 146.832,390.667 93.1656,390.5 39.5,390C 18.319,384.652 4.98567,371.485 -0.5,350.5C -0.5,253.833 -0.5,157.167 -0.5,60.5C 4.98567,39.5149 18.319,26.3483 39.5,21C 98.1667,20.3333 156.833,20.3333 215.5,21C 222.167,27.3333 222.167,33.6667 215.5,40C 180.168,40.5 144.835,40.6667 109.5,40.5C 109.5,127.167 109.5,213.833 109.5,300.5C 236.833,300.5 364.167,300.5 491.5,300.5C 491.667,223.833 491.5,147.166 491,70.5C 489.167,52.6667 479.333,42.8333 461.5,41C 406.167,40.6667 350.833,40.3333 295.5,40C 289.374,35.6092 288.208,30.1092 292,23.5C 292.903,22.2986 294.069,21.4652 295.5,21C 354.167,20.3333 412.833,20.3333 471.5,21C 492.681,26.3483 506.014,39.5149 511.5,60.5 Z M 49.5,40.5 C 62.8333,40.5 76.1667,40.5 89.5,40.5C 89.5,62.5 89.5,84.5 89.5,106.5C 66.1667,106.5 42.8333,106.5 19.5,106.5C 19.3335,94.4954 19.5001,82.4954 20,70.5C 22.0111,52.6564 31.8445,42.6564 49.5,40.5 Z M 19.5,126.5 C 42.8333,126.5 66.1667,126.5 89.5,126.5C 89.5,184.5 89.5,242.5 89.5,300.5C 66.1667,300.5 42.8333,300.5 19.5,300.5C 19.5,242.5 19.5,184.5 19.5,126.5 Z M 273.5,135.5 C 279.695,135.107 285.695,135.941 291.5,138C 298.594,143.741 299.26,150.074 293.5,157C 287.173,159.926 280.506,161.093 273.5,160.5C 273.5,152.167 273.5,143.833 273.5,135.5 Z M 19.5,320.5 C 176.833,320.5 334.167,320.5 491.5,320.5C 492.223,331.731 491.057,342.731 488,353.5C 483.68,361.41 477.18,366.576 468.5,369C 397.526,370.155 326.526,370.655 255.5,370.5C 184.474,370.655 113.474,370.155 42.5,369C 28.68,364.542 21.18,355.042 20,340.5C 19.5004,333.842 19.3337,327.175 19.5,320.5 Z M 220.5,390.5 C 243.833,390.5 267.167,390.5 290.5,390.5C 290.333,407.17 290.5,423.837 291,440.5C 292.167,442.333 293.667,443.833 295.5,445C 305.5,445.333 315.5,445.667 325.5,446C 340.691,447.025 350.357,454.858 354.5,469.5C 288.5,470.833 222.5,470.833 156.5,469.5C 160.643,454.858 170.309,447.025 185.5,446C 195.5,445.667 205.5,445.333 215.5,445C 217.333,443.833 218.833,442.333 220,440.5C 220.5,423.837 220.667,407.17 220.5,390.5 Z"/></g>
<g><path style="opacity:0.897" fill="#fefffe" d="M 250.5,20.5 C 261.437,18.9378 266.27,23.6045 265,34.5C 261.82,40.2337 256.987,42.067 250.5,40C 242.581,33.5063 242.581,27.0063 250.5,20.5 Z"/></g>
<g><path style="opacity:0.942" fill="#fefffe" d="M 186.5,115.5 C 201.428,113.483 215.095,116.65 227.5,125C 230.36,128.681 231.193,132.848 230,137.5C 227.081,143.025 222.581,144.858 216.5,143C 204.575,135.172 192.242,134.506 179.5,141C 165.699,151.676 161.199,165.509 166,182.5C 173.751,200.626 187.251,207.459 206.5,203C 211.118,200.05 215.452,196.716 219.5,193C 231.898,192.077 236.064,197.577 232,209.5C 217.161,225.335 199.328,229.835 178.5,223C 151.486,210.483 139.986,189.317 144,159.5C 149.255,136.081 163.421,121.414 186.5,115.5 Z"/></g>
<g><path style="opacity:0.962" fill="#fefffe" d="M 258.5,115.5 C 270.171,115.333 281.838,115.5 293.5,116C 316.499,124.964 323.666,141.13 315,164.5C 308.88,173.61 300.38,179.11 289.5,181C 299.364,190.53 308.864,200.363 318,210.5C 320.167,222.333 315.333,227.167 303.5,225C 293.363,215.864 283.53,206.364 274,196.5C 273.667,204.5 273.333,212.5 273,220.5C 269.345,225.275 264.512,226.775 258.5,225C 256.667,223.833 255.167,222.333 254,220.5C 253.333,187.167 253.333,153.833 254,120.5C 255.366,118.638 256.866,116.972 258.5,115.5 Z M 273.5,135.5 C 273.5,143.833 273.5,152.167 273.5,160.5C 280.506,161.093 287.173,159.926 293.5,157C 299.26,150.074 298.594,143.741 291.5,138C 285.695,135.941 279.695,135.107 273.5,135.5 Z"/></g>
<g><path style="opacity:0.949" fill="#fefffe" d="M 361.5,115.5 C 367.701,114.285 372.868,115.952 377,120.5C 383.532,141.095 389.865,161.762 396,182.5C 401.692,161.732 407.692,141.065 414,120.5C 420.064,114.627 426.731,113.96 434,118.5C 435.439,120.275 436.439,122.275 437,124.5C 442.333,152.5 447.667,180.5 453,208.5C 455.426,222.751 449.926,227.585 436.5,223C 435.299,222.097 434.465,220.931 434,219.5C 430.227,201.197 426.56,182.864 423,164.5C 418,182.167 413,199.833 408,217.5C 404.527,225.095 398.694,227.595 390.5,225C 388.714,224.215 387.214,223.049 386,221.5C 380.014,203.225 374.181,184.892 368.5,166.5C 364.879,184.897 361.046,203.231 357,221.5C 351.333,226.833 345.667,226.833 340,221.5C 338.455,216.953 338.121,212.287 339,207.5C 344,180.167 349,152.833 354,125.5C 354.831,120.809 357.331,117.475 361.5,115.5 Z"/></g>
<g><path style="opacity:0.908" fill="#fefffe" d="M 49.5,156.5 C 61.3244,154.824 66.1577,159.824 64,171.5C 60.3449,176.275 55.5116,177.775 49.5,176C 44.7255,172.345 43.2255,167.512 45,161.5C 46.3657,159.638 47.8657,157.972 49.5,156.5 Z"/></g>
<g><path style="opacity:0.908" fill="#fefffe" d="M 49.5,201.5 C 61.3244,199.824 66.1577,204.824 64,216.5C 60.3449,221.275 55.5116,222.775 49.5,221C 44.7255,217.345 43.2255,212.512 45,206.5C 46.3657,204.638 47.8657,202.972 49.5,201.5 Z"/></g>
<g><path style="opacity:0.908" fill="#fefffe" d="M 49.5,246.5 C 61.3244,244.824 66.1577,249.824 64,261.5C 60.3449,266.275 55.5116,267.775 49.5,266C 44.7255,262.345 43.2255,257.512 45,251.5C 46.3657,249.638 47.8657,247.972 49.5,246.5 Z"/></g>
</svg>
