<svg xmlns="http://www.w3.org/2000/svg" width="80" height="80" viewBox="0 0 80 80" version="1.1"><path d="M 7.680 13.653 L 7 14.333 7 40.667 L 7 67 40.016 67 L 73.033 67 72.766 40.250 L 72.500 13.500 40.430 13.236 L 8.361 12.973 7.680 13.653 M 10.200 16.200 L 9 17.400 9 20.117 L 9 22.833 10.250 23.417 L 11.500 24 10.250 24.583 L 9 25.167 9 45.083 L 9 65 40 65 L 71 65 71 45.083 L 71 25.167 69.750 24.583 L 68.500 24 69.750 23.417 L 71 22.833 71 20.117 L 71 17.400 69.800 16.200 L 68.600 15 40 15 L 11.400 15 10.200 16.200 M 11 19 L 11 21 13 21 L 15 21 15 19 L 15 17 13 17 L 11 17 11 19 M 17 19 L 17 21 19 21 L 21 21 21 19 L 21 17 19 17 L 17 17 17 19 M 23 19 L 23 21 25 21 L 27 21 27 19 L 27 17 25 17 L 23 17 23 19 M 13 24 L 13 25 14 25 L 15 25 15 24 L 15 23 14 23 L 13 23 13 24 M 17 24 L 17 25 18 25 L 19 25 19 24 L 19 23 18 23 L 17 23 17 24 M 21 24 L 21 25 22 25 L 23 25 23 24 L 23 23 22 23 L 21 23 21 24 M 25 24 L 25 25 26 25 L 27 25 27 24 L 27 23 26 23 L 25 23 25 24 M 29 24 L 29 25 30 25 L 31 25 31 24 L 31 23 30 23 L 29 23 29 24 M 33 24 L 33 25 34 25 L 35 25 35 24 L 35 23 34 23 L 33 23 33 24 M 37 24 L 37 25 38 25 L 39 25 39 24 L 39 23 38 23 L 37 23 37 24 M 41 24 L 41 25 42 25 L 43 25 43 24 L 43 23 42 23 L 41 23 41 24 M 45 24 L 45 25 46 25 L 47 25 47 24 L 47 23 46 23 L 45 23 45 24 M 49 24 L 49 25 50 25 L 51 25 51 24 L 51 23 50 23 L 49 23 49 24 M 53 24 L 53 25 54 25 L 55 25 55 24 L 55 23 54 23 L 53 23 53 24 M 57 24 L 57 25 58 25 L 59 25 59 24 L 59 23 58 23 L 57 23 57 24 M 61 24 L 61 25 62 25 L 63 25 63 24 L 63 23 62 23 L 61 23 61 24 M 65 24 L 65 25 66 25 L 67 25 67 24 L 67 23 66 23 L 65 23 65 24 M 46 35.750 L 46 39.500 37.750 39.348 L 29.500 39.196 27.750 40.753 L 26 42.310 26 50.655 L 26 59 40 59 L 54 59 54 45.500 L 54 32 50 32 L 46 32 46 35.750 M 48 40 L 48 46 47.241 46 L 46.481 46 45.384 44.243 L 44.286 42.486 37.369 42.544 L 30.453 42.602 29.226 43.360 L 28 44.118 28 50.559 L 28 57 40 57 L 52 57 52 45.500 L 52 34 50 34 L 48 34 48 40 M 31 47.500 L 31 49 32 49 L 33 49 33 47.500 L 33 46 32 46 L 31 46 31 47.500 M 36 47.500 L 36 49 37 49 L 38 49 38 47.500 L 38 46 37 46 L 36 46 36 47.500 M 41 47.500 L 41 49 42 49 L 43 49 43 47.500 L 43 46 42 46 L 41 46 41 47.500 M 46 49 L 46 50 47 50 L 48 50 48 49 L 48 48 47 48 L 46 48 46 49 M 31 52.500 L 31 54 32 54 L 33 54 33 52.500 L 33 51 32 51 L 31 51 31 52.500 M 36 52.500 L 36 54 37 54 L 38 54 38 52.500 L 38 51 37 51 L 36 51 36 52.500 M 41 52.500 L 41 54 42 54 L 43 54 43 52.500 L 43 51 42 51 L 41 51 41 52.500 M 46 53 L 46 54 47 54 L 48 54 48 53 L 48 52 47 52 L 46 52 46 53" stroke="none" fill="#fffcfc" fill-rule="evenodd"/><path d="" stroke="none" fill="#fcfcfc" fill-rule="evenodd"/></svg>