<?xml version="1.0" encoding="UTF-8"?>
<!DOCTYPE svg PUBLIC "-//W3C//DTD SVG 1.1//EN" "http://www.w3.org/Graphics/SVG/1.1/DTD/svg11.dtd">
<svg xmlns="http://www.w3.org/2000/svg" version="1.1" width="1050px" height="292px" style="shape-rendering:geometricPrecision; text-rendering:geometricPrecision; image-rendering:optimizeQuality; fill-rule:evenodd; clip-rule:evenodd" xmlns:xlink="http://www.w3.org/1999/xlink">
<g><path style="opacity:0.608" fill="#9b9b9b" d="M 653.5,75.5 C 653.5,73.1667 653.5,70.8333 653.5,68.5C 639.167,68.5 624.833,68.5 610.5,68.5C 610.5,71.1667 610.5,73.8333 610.5,76.5C 609.523,73.7131 609.19,70.7131 609.5,67.5C 624.5,67.5 639.5,67.5 654.5,67.5C 654.806,70.3854 654.473,73.0521 653.5,75.5 Z"/></g>
<g><path style="opacity:0.982" fill="#dfdfdf" d="M 653.5,75.5 C 653.489,77.0174 652.823,78.1841 651.5,79C 638.5,79.6667 625.5,79.6667 612.5,79C 611.619,78.2917 610.953,77.4584 610.5,76.5C 610.5,73.8333 610.5,71.1667 610.5,68.5C 624.833,68.5 639.167,68.5 653.5,68.5C 653.5,70.8333 653.5,73.1667 653.5,75.5 Z"/></g>
<g><path style="opacity:0.998" fill="#e0e0df" d="M 734.5,91.5 C 733.51,97.6446 733.177,103.978 733.5,110.5C 751.167,110.5 768.833,110.5 786.5,110.5C 796.199,112.358 802.699,118.024 806,127.5C 809.89,138.502 811.39,149.835 810.5,161.5C 809.686,163.631 809.186,165.964 809,168.5C 808.111,167.112 807.611,167.278 807.5,169C 808.287,171.099 808.62,173.266 808.5,175.5C 806.812,189.339 799.479,198.506 786.5,203C 767.503,203.5 748.503,203.667 729.5,203.5C 729.334,198.821 729.501,194.155 730,189.5C 733.5,186 737,182.5 740.5,179C 752.829,178.5 765.162,178.333 777.5,178.5C 777.5,164.167 777.5,149.833 777.5,135.5C 763.01,134.504 748.343,134.171 733.5,134.5C 733.5,146.833 733.5,159.167 733.5,171.5C 730.371,175.131 727.037,178.631 723.5,182C 717.843,182.499 712.176,182.666 706.5,182.5C 706.5,144.167 706.5,105.833 706.5,67.5C 738.5,67.5 770.5,67.5 802.5,67.5C 802.666,74.8409 802.5,82.1742 802,89.5C 801.5,90 801,90.5 800.5,91C 778.503,91.5 756.503,91.6666 734.5,91.5 Z"/></g>
<g><path style="opacity:0.997" fill="#dcdcdb" d="M 202.5,175.5 C 211.349,175.174 220.016,175.507 228.5,176.5C 221.803,192.688 209.803,202.522 192.5,206C 172.939,209.255 156.106,204.088 142,190.5C 128.096,169.839 127.429,148.839 140,127.5C 157.297,108.301 178.13,103.134 202.5,112C 217.889,119.744 226.723,132.244 229,149.5C 229.499,154.823 229.666,160.156 229.5,165.5C 206.5,165.5 183.5,165.5 160.5,165.5C 161.626,174.13 166.293,179.963 174.5,183C 185.354,185.598 194.688,183.098 202.5,175.5 Z M 199.5,141.5 C 187.211,143.48 174.544,144.147 161.5,143.5C 168.53,130.767 178.864,127.267 192.5,133C 196.119,134.785 198.452,137.618 199.5,141.5 Z"/></g>
<g><path style="opacity:0.998" fill="#dededd" d="M 271.5,193.5 C 271.217,192.711 270.717,192.044 270,191.5C 269.5,205.829 269.333,220.163 269.5,234.5C 260.167,234.5 250.833,234.5 241.5,234.5C 241.5,193.167 241.5,151.833 241.5,110.5C 251.167,110.5 260.833,110.5 270.5,110.5C 270.335,114.182 270.501,117.848 271,121.5C 280.513,110.068 292.68,105.902 307.5,109C 325.295,113.796 335.795,125.296 339,143.5C 342.902,162.228 339.235,179.228 328,194.5C 314.639,206.705 299.472,209.538 282.5,203C 278.051,200.716 274.384,197.549 271.5,193.5 Z M 282.5,131.5 C 296.526,129.254 305.359,134.921 309,148.5C 312.209,161.319 309.042,172.152 299.5,181C 284.4,186.7 274.566,181.866 270,166.5C 268.934,158.006 269.601,149.672 272,141.5C 274.738,137.26 278.238,133.926 282.5,131.5 Z"/></g>
<g><path style="opacity:0.18" fill="#4f4f4f" d="M 734.5,91.5 C 734.5,97.5 734.5,103.5 734.5,109.5C 752.008,109.17 769.341,109.503 786.5,110.5C 768.833,110.5 751.167,110.5 733.5,110.5C 733.177,103.978 733.51,97.6446 734.5,91.5 Z"/></g>
<g><path style="opacity:0.996" fill="#e1e1e0" d="M 119.5,110.5 C 119.5,141.5 119.5,172.5 119.5,203.5C 109.833,203.5 100.167,203.5 90.5,203.5C 90.5,180.5 90.5,157.5 90.5,134.5C 80.5,134.5 70.5,134.5 60.5,134.5C 60.5,157.5 60.5,180.5 60.5,203.5C 51.1667,203.5 41.8333,203.5 32.5,203.5C 32.5,172.5 32.5,141.5 32.5,110.5C 61.5,110.5 90.5,110.5 119.5,110.5 Z"/></g>
<g><path style="opacity:0.997" fill="#e0e0df" d="M 408.5,110.5 C 434.409,110.881 443.242,123.215 435,147.5C 433.127,149.709 430.96,151.542 428.5,153C 440.25,158.86 444.75,168.36 442,181.5C 438.414,194.414 429.914,201.581 416.5,203C 394.836,203.5 373.169,203.667 351.5,203.5C 351.5,172.5 351.5,141.5 351.5,110.5C 370.5,110.5 389.5,110.5 408.5,110.5 Z M 380.5,129.5 C 387.841,129.334 395.174,129.5 402.5,130C 410.905,132.774 412.572,137.774 407.5,145C 405.35,146.411 403.016,147.245 400.5,147.5C 393.833,147.5 387.167,147.5 380.5,147.5C 380.5,141.5 380.5,135.5 380.5,129.5 Z M 380.5,163.5 C 387.175,163.334 393.842,163.5 400.5,164C 411.378,163.522 415.544,168.355 413,178.5C 410.97,181.563 408.136,183.229 404.5,183.5C 396.5,183.5 388.5,183.5 380.5,183.5C 380.5,176.833 380.5,170.167 380.5,163.5 Z"/></g>
<g><path style="opacity:0.997" fill="#dcdcdb" d="M 454.5,110.5 C 463.833,110.5 473.167,110.5 482.5,110.5C 482.5,120.167 482.5,129.833 482.5,139.5C 489.167,139.5 495.833,139.5 502.5,139.5C 528.545,140.87 539.378,154.537 535,180.5C 532.433,194.043 524.266,201.543 510.5,203C 491.503,203.5 472.503,203.667 453.5,203.5C 453.169,172.329 453.502,141.329 454.5,110.5 Z M 483.5,158.5 C 489.577,158.196 495.577,158.696 501.5,160C 506.177,161.835 508.511,165.335 508.5,170.5C 508.407,175.064 506.741,178.897 503.5,182C 496.924,183.377 490.257,183.877 483.5,183.5C 483.5,175.167 483.5,166.833 483.5,158.5 Z"/></g>
<g><path style="opacity:0.416" fill="#696969" d="M 454.5,110.5 C 463.986,109.506 473.652,109.173 483.5,109.5C 483.5,119.167 483.5,128.833 483.5,138.5C 490.022,138.177 496.355,138.51 502.5,139.5C 495.833,139.5 489.167,139.5 482.5,139.5C 482.5,129.833 482.5,120.167 482.5,110.5C 473.167,110.5 463.833,110.5 454.5,110.5 Z"/></g>
<g><path style="opacity:0.998" fill="#dcdcdb" d="M 542.5,110.5 C 551.833,110.5 561.167,110.5 570.5,110.5C 570.5,141.5 570.5,172.5 570.5,203.5C 560.833,203.5 551.167,203.5 541.5,203.5C 541.169,172.329 541.502,141.329 542.5,110.5 Z"/></g>
<g><path style="opacity:0.376" fill="#707070" d="M 613.5,110.5 C 613.167,110.5 612.833,110.5 612.5,110.5C 603.5,110.5 594.5,110.5 585.5,110.5C 585.5,141.5 585.5,172.5 585.5,203.5C 584.502,172.338 584.168,141.004 584.5,109.5C 594.348,109.173 604.014,109.506 613.5,110.5 Z"/></g>
<g><path style="opacity:0.997" fill="#dddddd" d="M 585.5,203.5 C 585.5,172.5 585.5,141.5 585.5,110.5C 594.5,110.5 603.5,110.5 612.5,110.5C 612.333,128.836 612.5,147.17 613,165.5C 613.717,164.956 614.217,164.289 614.5,163.5C 626.366,145.609 638.366,127.776 650.5,110C 659.833,109.333 669.167,109.333 678.5,110C 679.496,141.093 679.829,172.26 679.5,203.5C 669.833,203.5 660.167,203.5 650.5,203.5C 650.667,185.83 650.5,168.164 650,150.5C 637.833,168 625.667,185.5 613.5,203C 604.173,203.5 594.839,203.666 585.5,203.5 Z"/></g>
<g><path style="opacity:0.994" fill="#e0e0df" d="M 886.5,203.5 C 886.667,185.497 886.5,167.497 886,149.5C 885.283,150.044 884.783,150.711 884.5,151.5C 873.09,168.645 861.424,185.645 849.5,202.5C 840.19,203.498 830.857,203.832 821.5,203.5C 821.5,172.5 821.5,141.5 821.5,110.5C 830.5,110.5 839.5,110.5 848.5,110.5C 848.333,128.836 848.5,147.17 849,165.5C 849.717,164.956 850.217,164.289 850.5,163.5C 861.861,145.293 873.861,127.46 886.5,110C 895.827,109.5 905.161,109.334 914.5,109.5C 914.5,140.833 914.5,172.167 914.5,203.5C 905.167,203.5 895.833,203.5 886.5,203.5 Z"/></g>
<g><path style="opacity:0.188" fill="#4f4f4f" d="M 848.5,110.5 C 849.167,128.167 849.833,145.833 850.5,163.5C 850.217,164.289 849.717,164.956 849,165.5C 848.5,147.17 848.333,128.836 848.5,110.5 Z"/></g>
<g><path style="opacity:0.998" fill="#dfdfdd" d="M 986.5,134.5 C 985.503,156.994 985.169,179.661 985.5,202.5C 976.5,202.5 967.5,202.5 958.5,202.5C 958.831,179.661 958.497,156.994 957.5,134.5C 947.5,134.5 937.5,134.5 927.5,134.5C 927.5,126.167 927.5,117.833 927.5,109.5C 957.167,109.5 986.833,109.5 1016.5,109.5C 1016.5,117.833 1016.5,126.167 1016.5,134.5C 1006.5,134.5 996.5,134.5 986.5,134.5 Z"/></g>
<g><path style="opacity:0.416" fill="#737373" d="M 119.5,110.5 C 90.5,110.5 61.5,110.5 32.5,110.5C 32.5,141.5 32.5,172.5 32.5,203.5C 31.5018,172.338 31.1685,141.004 31.5,109.5C 61.0047,109.169 90.3381,109.502 119.5,110.5 Z"/></g>
<g><path style="opacity:0.314" fill="#606060" d="M 408.5,110.5 C 389.5,110.5 370.5,110.5 351.5,110.5C 351.5,141.5 351.5,172.5 351.5,203.5C 350.502,172.338 350.168,141.004 350.5,109.5C 370.007,109.17 389.341,109.503 408.5,110.5 Z"/></g>
<g><path style="opacity:0.392" fill="#747474" d="M 542.5,110.5 C 551.986,109.506 561.652,109.173 571.5,109.5C 571.832,141.004 571.498,172.338 570.5,203.5C 570.5,172.5 570.5,141.5 570.5,110.5C 561.167,110.5 551.833,110.5 542.5,110.5 Z"/></g>
<g><path style="opacity:0.408" fill="#828282" d="M 612.5,110.5 C 612.833,110.5 613.167,110.5 613.5,110.5C 613.17,128.341 613.503,146.008 614.5,163.5C 614.217,164.289 613.717,164.956 613,165.5C 612.5,147.17 612.333,128.836 612.5,110.5 Z"/></g>
<g><path style="opacity:0.608" fill="#9e9e9e" d="M 848.5,110.5 C 839.5,110.5 830.5,110.5 821.5,110.5C 821.5,141.5 821.5,172.5 821.5,203.5C 820.502,172.338 820.168,141.004 820.5,109.5C 830.015,109.173 839.348,109.506 848.5,110.5 Z"/></g>
<g><path style="opacity:0.227" fill="#484848" d="M 777.5,135.5 C 763.167,135.5 748.833,135.5 734.5,135.5C 734.828,147.678 734.495,159.678 733.5,171.5C 733.5,159.167 733.5,146.833 733.5,134.5C 748.343,134.171 763.01,134.504 777.5,135.5 Z"/></g>
<g><path style="opacity:0.624" fill="#b3b3b2" d="M 957.5,134.5 C 958.497,156.994 958.831,179.661 958.5,202.5C 967.5,202.5 976.5,202.5 985.5,202.5C 985.169,179.661 985.503,156.994 986.5,134.5C 986.5,157.5 986.5,180.5 986.5,203.5C 976.833,203.5 967.167,203.5 957.5,203.5C 957.5,180.5 957.5,157.5 957.5,134.5 Z"/></g>
<g><path style="opacity:0.079" fill="#2d2d2d" d="M 199.5,141.5 C 200.404,142.209 200.737,143.209 200.5,144.5C 187.323,144.829 174.323,144.495 161.5,143.5C 174.544,144.147 187.211,143.48 199.5,141.5 Z"/></g>
<g><path style="opacity:0.497" fill="#757575" d="M 380.5,129.5 C 380.5,135.5 380.5,141.5 380.5,147.5C 387.167,147.5 393.833,147.5 400.5,147.5C 393.687,148.491 386.687,148.825 379.5,148.5C 379.177,141.978 379.51,135.645 380.5,129.5 Z"/></g>
<g><path style="opacity:0.947" fill="#a5a5a5" d="M 810.5,161.5 C 810.638,166.414 809.972,171.081 808.5,175.5C 808.62,173.266 808.287,171.099 807.5,169C 807.611,167.278 808.111,167.112 809,168.5C 809.186,165.964 809.686,163.631 810.5,161.5 Z"/></g>
<g><path style="opacity:0.432" fill="#7f7f7f" d="M 202.5,175.5 C 211.342,174.178 220.342,174.178 229.5,175.5C 229.376,176.107 229.043,176.44 228.5,176.5C 220.016,175.507 211.349,175.174 202.5,175.5 Z"/></g>
<g><path style="opacity:0.008" fill="#202020" d="M 886.5,203.5 C 885.833,186.167 885.167,168.833 884.5,151.5C 884.783,150.711 885.283,150.044 886,149.5C 886.5,167.497 886.667,185.497 886.5,203.5 Z"/></g>
<g><path style="opacity:0.071" fill="#2d2d2d" d="M 380.5,163.5 C 380.5,170.167 380.5,176.833 380.5,183.5C 388.5,183.5 396.5,183.5 404.5,183.5C 396.35,184.493 388.017,184.826 379.5,184.5C 379.175,177.313 379.509,170.313 380.5,163.5 Z"/></g>
<g><path style="opacity:0.521" fill="#9e9e9e" d="M 271.5,193.5 C 270.833,207.167 270.167,220.833 269.5,234.5C 269.333,220.163 269.5,205.829 270,191.5C 270.717,192.044 271.217,192.711 271.5,193.5 Z"/></g>
<g><path style="opacity:0.592" fill="#9a0646" d="M 718.5,192.5 C 709.014,193.494 699.348,193.827 689.5,193.5C 689.5,203.5 689.5,213.5 689.5,223.5C 699.5,223.5 709.5,223.5 719.5,223.5C 709.347,224.494 699.014,224.828 688.5,224.5C 688.5,213.833 688.5,203.167 688.5,192.5C 698.5,192.5 708.5,192.5 718.5,192.5 Z"/></g>
<g><path style="opacity:1" fill="#e81970" d="M 718.5,192.5 C 719.828,197.288 720.495,202.454 720.5,208C 720.499,213.344 720.166,218.511 719.5,223.5C 709.5,223.5 699.5,223.5 689.5,223.5C 689.5,213.5 689.5,203.5 689.5,193.5C 699.348,193.827 709.014,193.494 718.5,192.5 Z"/></g>
</svg>
